# xmcd
#
# Track frame offsets:
#	150
#	12683
#	26677
#	37402
#	53268
#	69550
#	85424
#	102597
#	123346
#	136959
#	151274
#
# Disc length: 2202 seconds
# Revision: 0
# Processed by: cddbd v1.5.2PL0 Copyright (c) Steve Scherf et al.
# Submitted via: dBpowerAMP V12.0
#
DISCID=9508980b
DTITLE=Swiss Highwaymen - A.Martin,H.Flückiger,G.Hug,B.Dee
DYEAR=2013
DGENRE=Country
TTITLE0=Big River
TTITLE1=I've Got My Baby on My Mind
TTITLE2=I Want To Go To Nashville
TTITLE3=Why Me Lord
TTITLE4=Daydreamin'
TTITLE5=Even Cowgirls Get The Blues
TTITLE6=Is Anybody Goin' To San Antone
TTITLE7=Joe's Honky Tonk
TTITLE8=Who's Laughing Now
TTITLE9=When I Get Older
TTITLE10=The Last Cowboy Song
EXTD=
EXTT0=
EXTT1=
EXTT2=
EXTT3=
EXTT4=
EXTT5=
EXTT6=
EXTT7=
EXTT8=
EXTT9=
EXTT10=
PLAYORDER=
